<svg fill="none" height="36" viewBox="0 0 36 36" width="36" xmlns="http://www.w3.org/2000/svg">
    <rect fill="white" height="36" rx="18" width="36" />
    <path clip-rule="evenodd"
        d="M18.0003 9.66699C17.5401 9.66699 17.167 10.0401 17.167 10.5003V11.3852C14.1514 11.7613 11.7613 14.1514 11.3852 17.167H10.5003C10.0401 17.167 9.66699 17.5401 9.66699 18.0003C9.66699 18.4606 10.0401 18.8337 10.5003 18.8337H11.3852C11.7613 21.8492 14.1514 24.2394 17.167 24.6154V25.5003C17.167 25.9606 17.5401 26.3337 18.0003 26.3337C18.4606 26.3337 18.8337 25.9606 18.8337 25.5003V24.6154C21.8492 24.2394 24.2394 21.8492 24.6154 18.8337H25.5003C25.9606 18.8337 26.3337 18.4606 26.3337 18.0003C26.3337 17.5401 25.9606 17.167 25.5003 17.167H24.6154C24.2394 14.1514 21.8492 11.7613 18.8337 11.3852V10.5003C18.8337 10.0401 18.4606 9.66699 18.0003 9.66699ZM18.0003 19.667C18.9208 19.667 19.667 18.9208 19.667 18.0003C19.667 17.0798 18.9208 16.3337 18.0003 16.3337C17.0798 16.3337 16.3337 17.0798 16.3337 18.0003C16.3337 18.9208 17.0798 19.667 18.0003 19.667Z"
        fill="#3C3C3B" fill-rule="evenodd" />
</svg>
