<svg width="18" height="18" viewBox="0 0 18 18" fill="none" xmlns="http://www.w3.org/2000/svg">
<path fill-rule="evenodd" clip-rule="evenodd" d="M8.36662 3.375C8.11684 2.40456 7.23591 1.6875 6.1875 1.6875C5.13909 1.6875 4.25816 2.40456 4.00838 3.375H2.8125C2.50184 3.375 2.25 3.62684 2.25 3.9375C2.25 4.24816 2.50184 4.5 2.8125 4.5H4.00838C4.25816 5.47044 5.13909 6.1875 6.1875 6.1875C7.23591 6.1875 8.11684 5.47044 8.36662 4.5H15.1875C15.4982 4.5 15.75 4.24816 15.75 3.9375C15.75 3.62684 15.4982 3.375 15.1875 3.375H8.36662ZM7.3125 3.9375C7.3125 4.55882 6.80882 5.0625 6.1875 5.0625C5.56618 5.0625 5.0625 4.55882 5.0625 3.9375C5.0625 3.31618 5.56618 2.8125 6.1875 2.8125C6.80882 2.8125 7.3125 3.31618 7.3125 3.9375Z" fill="white"/>
<path fill-rule="evenodd" clip-rule="evenodd" d="M2.8125 8.4375C2.50184 8.4375 2.25 8.68934 2.25 9C2.25 9.31066 2.50184 9.5625 2.8125 9.5625H9.5625C9.58613 9.5625 9.60942 9.56104 9.63229 9.55821C9.88057 10.5308 10.7625 11.25 11.8125 11.25C12.8609 11.25 13.7418 10.5329 13.9916 9.5625H15.1875C15.4982 9.5625 15.75 9.31066 15.75 9C15.75 8.68934 15.4982 8.4375 15.1875 8.4375H13.9916C13.7418 7.46706 12.8609 6.75 11.8125 6.75C10.7625 6.75 9.88057 7.46917 9.63229 8.44179C9.60942 8.43896 9.58613 8.4375 9.5625 8.4375H2.8125ZM11.8125 7.875C12.4338 7.875 12.9375 8.37868 12.9375 9C12.9375 9.62132 12.4338 10.125 11.8125 10.125C11.1912 10.125 10.6875 9.62132 10.6875 9C10.6875 8.37868 11.1912 7.875 11.8125 7.875Z" fill="white"/>
<path fill-rule="evenodd" clip-rule="evenodd" d="M2.8125 13.5C2.50184 13.5 2.25 13.7518 2.25 14.0625C2.25 14.3732 2.50184 14.625 2.8125 14.625H5.69588C5.94566 15.5954 6.82659 16.3125 7.875 16.3125C8.92341 16.3125 9.80434 15.5954 10.0541 14.625H15.1875C15.4982 14.625 15.75 14.3732 15.75 14.0625C15.75 13.7518 15.4982 13.5 15.1875 13.5H10.0541C9.80434 12.5296 8.92341 11.8125 7.875 11.8125C6.82659 11.8125 5.94566 12.5296 5.69588 13.5H2.8125ZM9 14.0625C9 13.4412 8.49632 12.9375 7.875 12.9375C7.25368 12.9375 6.75 13.4412 6.75 14.0625C6.75 14.6838 7.25368 15.1875 7.875 15.1875C8.49632 15.1875 9 14.6838 9 14.0625Z" fill="white"/>
</svg>
