<svg width="19" height="18" viewBox="0 0 19 18" fill="none" xmlns="http://www.w3.org/2000/svg">
<path fill-rule="evenodd" clip-rule="evenodd" d="M8.50122 0.285177C8.89721 -0.00521536 9.4358 -0.00521526 9.83179 0.285177L17.7068 6.06018C17.9958 6.2721 18.1665 6.60902 18.1665 6.96738V16.8073C18.1665 17.4287 17.6628 17.9323 17.0415 17.9323H11.979C11.3577 17.9323 10.854 17.4287 10.854 16.8073V11.7448H7.479V16.8073C7.479 17.4287 6.97532 17.9323 6.354 17.9323H1.2915C0.670183 17.9323 0.166504 17.4287 0.166504 16.8073V6.96738C0.166504 6.60902 0.337235 6.2721 0.62622 6.06018L8.50122 0.285177ZM9.1665 1.19238L1.2915 6.96738V16.8073H6.354V11.7448C6.354 11.1235 6.85768 10.6198 7.479 10.6198H10.854C11.4753 10.6198 11.979 11.1235 11.979 11.7448V16.8073H17.0415V6.96738L9.1665 1.19238Z" fill="#353B3C"/>
</svg>
