<svg width="19" height="18" viewBox="0 0 19 18" fill="none" xmlns="http://www.w3.org/2000/svg">
<path d="M7.25 4.21875C7.71599 4.21875 8.09375 3.84099 8.09375 3.375C8.09375 2.90901 7.71599 2.53125 7.25 2.53125C6.78401 2.53125 6.40625 2.90901 6.40625 3.375C6.40625 3.84099 6.78401 4.21875 7.25 4.21875Z" fill="#353B3C"/>
<path fill-rule="evenodd" clip-rule="evenodd" d="M7.65876 8.52536C8.5573 7.45517 10.625 4.83396 10.625 3.375C10.625 1.51104 9.11396 0 7.25 0C5.38604 0 3.875 1.51104 3.875 3.375C3.875 4.83396 5.9427 7.45517 6.84124 8.52536C7.05644 8.78168 7.44356 8.78168 7.65876 8.52536ZM9.25989 4.18775C9.44447 3.77253 9.5 3.5061 9.5 3.375C9.5 2.13236 8.49264 1.125 7.25 1.125C6.00736 1.125 5 2.13236 5 3.375C5 3.5061 5.05553 3.77253 5.24011 4.18775C5.4156 4.58249 5.66872 5.02634 5.96539 5.48436C6.38136 6.12654 6.85408 6.75263 7.25 7.24873C7.64592 6.75263 8.11864 6.12654 8.53461 5.48436C8.83128 5.02634 9.0844 4.58249 9.25989 4.18775Z" fill="#353B3C"/>
<path d="M1.625 4.45673C1.625 4.18797 1.85276 3.9375 2.18825 3.9375C2.49891 3.9375 2.75075 3.68566 2.75075 3.375C2.75075 3.06434 2.49891 2.8125 2.18825 2.8125C1.27416 2.8125 0.5 3.52477 0.5 4.45673V16.3558C0.5 17.2805 1.27229 18 2.18825 18H16.8117C17.7202 18 18.5 17.2823 18.5 16.3558V4.45673C18.5 3.52298 17.7183 2.8125 16.8117 2.8125H12.32C12.0093 2.8125 11.7575 3.06434 11.7575 3.375C11.7575 3.68566 12.0093 3.9375 12.32 3.9375H16.8117C17.1435 3.9375 17.375 4.18976 17.375 4.45673V16.3558C17.375 16.6191 17.1416 16.875 16.8117 16.875H16.3658C16.3489 16.5404 16.2945 16.2117 16.1796 15.8995C15.9922 15.3904 15.6564 14.9591 15.1372 14.6246L15.1361 14.6239C14.7552 14.3798 14.338 14.2763 13.9962 14.2009C13.9377 14.188 13.8816 14.1758 13.8276 14.1642C13.5416 14.1025 13.314 14.0534 13.0993 13.9628C12.9826 13.9106 12.9261 13.8689 12.8986 13.8386C12.8634 13.7946 12.8297 13.711 12.8532 13.4481C12.8608 13.3625 12.8708 13.2874 12.8823 13.201C12.8899 13.1436 12.8982 13.0811 12.9069 13.0074C12.9261 12.8445 12.9434 12.6504 12.9301 12.4501L12.9298 12.4461C12.8853 11.8438 12.5685 11.3595 12.1746 11.0113C11.7831 10.6652 11.29 10.4283 10.8092 10.3056C10.3531 10.1892 9.89191 10.1482 9.48146 10.1117L9.47396 10.111C9.04657 10.073 8.67188 10.0392 8.31374 9.9503C8.01224 9.87545 7.70713 10.0592 7.63228 10.3607C7.55742 10.6622 7.74116 10.9673 8.04266 11.0422C8.48898 11.153 8.94096 11.1931 9.34413 11.2289L9.37432 11.2316C9.80011 11.2695 10.1742 11.3046 10.531 11.3956C10.8657 11.4811 11.1912 11.6435 11.4296 11.8542C11.6651 12.0624 11.7897 12.2918 11.8077 12.5269C11.8138 12.6215 11.8065 12.7327 11.7896 12.8755C11.7849 12.9157 11.7786 12.9638 11.7718 13.0158C11.7579 13.1214 11.742 13.2432 11.7326 13.3479C11.7033 13.6758 11.6981 14.1574 12.0388 14.5643L12.0444 14.5708C12.2314 14.7874 12.4666 14.9127 12.6466 14.9927L12.6552 14.9965C12.9788 15.1339 13.3283 15.2084 13.6133 15.2691C13.6621 15.2796 13.709 15.2896 13.7536 15.2994C14.0866 15.3729 14.3301 15.4438 14.5286 15.5708C14.8471 15.7762 15.023 16.0141 15.1238 16.2881C15.1861 16.4572 15.2236 16.651 15.2389 16.875H2.18825C1.85463 16.875 1.625 16.6209 1.625 16.3558V4.45673Z" fill="#353B3C"/>
</svg>
