<svg width="19" height="18" viewBox="0 0 19 18" fill="none" xmlns="http://www.w3.org/2000/svg">
<path fill-rule="evenodd" clip-rule="evenodd" d="M9.19962 3.375C8.94985 2.40456 8.06892 1.6875 7.02051 1.6875C5.9721 1.6875 5.09117 2.40456 4.84139 3.375H3.64551C3.33485 3.375 3.08301 3.62684 3.08301 3.9375C3.08301 4.24816 3.33485 4.5 3.64551 4.5H4.84139C5.09117 5.47044 5.9721 6.1875 7.02051 6.1875C8.06892 6.1875 8.94985 5.47044 9.19962 4.5H16.0205C16.3312 4.5 16.583 4.24816 16.583 3.9375C16.583 3.62684 16.3312 3.375 16.0205 3.375H9.19962ZM8.14551 3.9375C8.14551 4.55882 7.64183 5.0625 7.02051 5.0625C6.39919 5.0625 5.89551 4.55882 5.89551 3.9375C5.89551 3.31618 6.39919 2.8125 7.02051 2.8125C7.64183 2.8125 8.14551 3.31618 8.14551 3.9375Z" fill="#353B3C"/>
<path fill-rule="evenodd" clip-rule="evenodd" d="M3.64551 8.4375C3.33485 8.4375 3.08301 8.68934 3.08301 9C3.08301 9.31066 3.33485 9.5625 3.64551 9.5625H10.3955C10.4191 9.5625 10.4424 9.56104 10.4653 9.55821C10.7136 10.5308 11.5956 11.25 12.6455 11.25C13.6939 11.25 14.5749 10.5329 14.8246 9.5625H16.0205C16.3312 9.5625 16.583 9.31066 16.583 9C16.583 8.68934 16.3312 8.4375 16.0205 8.4375H14.8246C14.5749 7.46706 13.6939 6.75 12.6455 6.75C11.5956 6.75 10.7136 7.46917 10.4653 8.44179C10.4424 8.43896 10.4191 8.4375 10.3955 8.4375H3.64551ZM12.6455 7.875C13.2668 7.875 13.7705 8.37868 13.7705 9C13.7705 9.62132 13.2668 10.125 12.6455 10.125C12.0242 10.125 11.5205 9.62132 11.5205 9C11.5205 8.37868 12.0242 7.875 12.6455 7.875Z" fill="#353B3C"/>
<path fill-rule="evenodd" clip-rule="evenodd" d="M3.64551 13.5C3.33485 13.5 3.08301 13.7518 3.08301 14.0625C3.08301 14.3732 3.33485 14.625 3.64551 14.625H6.52889C6.77867 15.5954 7.6596 16.3125 8.70801 16.3125C9.75642 16.3125 10.6373 15.5954 10.8871 14.625H16.0205C16.3312 14.625 16.583 14.3732 16.583 14.0625C16.583 13.7518 16.3312 13.5 16.0205 13.5H10.8871C10.6373 12.5296 9.75642 11.8125 8.70801 11.8125C7.6596 11.8125 6.77867 12.5296 6.52889 13.5H3.64551ZM9.83301 14.0625C9.83301 13.4412 9.32933 12.9375 8.70801 12.9375C8.08669 12.9375 7.58301 13.4412 7.58301 14.0625C7.58301 14.6838 8.08669 15.1875 8.70801 15.1875C9.32933 15.1875 9.83301 14.6838 9.83301 14.0625Z" fill="#353B3C"/>
</svg>
