<svg width="19" height="18" viewBox="0 0 19 18" fill="none" xmlns="http://www.w3.org/2000/svg">
<path fill-rule="evenodd" clip-rule="evenodd" d="M8.50122 0.285665C8.89721 -0.00472708 9.4358 -0.00472698 9.83179 0.285665L17.7068 6.06067C17.9958 6.27259 18.1665 6.60951 18.1665 6.96787V16.8078C18.1665 17.4292 17.6628 17.9328 17.0415 17.9328H11.979C11.3577 17.9328 10.854 17.4291 10.854 16.8078V11.7453H7.479V16.8078C7.479 17.4292 6.97532 17.9328 6.354 17.9328H1.2915C0.670183 17.9328 0.166504 17.4291 0.166504 16.8078V6.96787C0.166504 6.60951 0.337235 6.27259 0.62622 6.06067L8.50122 0.285665ZM9.1665 1.19287L1.2915 6.96787V16.8078H6.354V11.7453C6.354 11.124 6.85768 10.6203 7.479 10.6203H10.854C11.4753 10.6203 11.979 11.124 11.979 11.7453V16.8078H17.0415V6.96787L9.1665 1.19287Z" fill="white"/>
</svg>
